<?xml version="1.0" encoding="utf-8"?>
<!-- Generator: Adobe Illustrator 16.0.3, SVG Export Plug-In . SVG Version: 6.00 Build 0)  -->
<!DOCTYPE svg PUBLIC "-//W3C//DTD SVG 1.1//EN" "http://www.w3.org/Graphics/SVG/1.1/DTD/svg11.dtd">
<svg version="1.1" xmlns="http://www.w3.org/2000/svg" xmlns:xlink="http://www.w3.org/1999/xlink" x="0px" y="0px" width="500px"
	 height="500px" viewBox="0 0 500 500" enable-background="new 0 0 500 500" xml:space="preserve">
<g id="Layer_3">
	<rect fill-rule="evenodd" clip-rule="evenodd" fill="#FAFAFA" width="500" height="500"/>
</g>
<g id="Layer_2" display="none">
	<path display="inline" fill-rule="evenodd" clip-rule="evenodd" fill="#6CB0CF" d="M467.5,322
		c-13.495,18.512-92.406,21.652-209.861,13.933c-117.453-7.719-210.918-27.181-209.568-47.734
		C49.421,267.645,143.5,257,262.53,261.502C380.153,265.95,479.635,305.354,467.5,322z"/>
</g>
<g id="Layer_1" display="none">
	<g display="inline" opacity="0.5">
		<g>
			<path fill-rule="evenodd" clip-rule="evenodd" fill="#11A3DC" d="M480.457,411.272c0.22-1.094,1.36-1.741,2.323-2.379
				c3.574-2.369,6.525-5.37,8.919-8.933c0.522-0.775,1.069-1.636,1.817-2.146c5.499-3.743,9.563-9.576,16.578-11.149
				c2.321-0.52,2.461-1.57,0.533-2.871c-7.764-5.23-12.211-13.062-16.135-21.109c-7.662-15.724-13.027-32.308-18-49.065
				c-3.953-13.321-6.398-26.942-9.521-40.43c-0.87-3.758-2.734-7.188-4.998-10.275c-1.359-1.857-1.771-3.512-0.629-5.438
				c1.156-1.953,1.163-3.701-0.438-5.417c-0.667-0.716-1.205-1.691-0.281-2.5c2.489-2.175,0.316-2.347-1.131-2.591
				c-7.141-1.205-14.181-2.936-21.381-3.827c-14.607-1.807-29.131-4.204-43.52-7.258c-18.154-3.854-36.388-7.516-53.865-13.962
				c-7.953-2.932-15.893-6.044-21.893-12.483c-4.905-5.263-4.635-10.583,1.08-14.93c6.949-5.283,15.033-8.11,23.49-9.739
				c10.803-2.081,21.709-3.617,32.408-6.242c1.36-0.335,2.807-0.409,4.217-0.432c6.545-0.104,12.723-2.23,19.078-3.375
				c1.178-0.213,2.383-0.674,4.086,0.429c-2.258,1.002-4.132,2.263-6.173,2.654c-5.454,1.046-10.909,2.084-16.29,3.448
				c-8.309,2.108-16.903,2.931-25.148,5.084c-9.584,2.503-19.461,3.438-28.973,6.195c-2.521,0.731-4.055,2.383-5.371,4.29
				c-1.171,1.698-0.438,3.572,1.273,4.311c4.816,2.076,9.771,3.825,15.164,3.554c0.666,0.112,1.332,0.224,1.998,0.335
				c0.348,0.504,0.781,0.666,1.338,0.331c0.505,0.075,1.009,0.151,1.514,0.225c0.392,0.458,0.863,0.612,1.438,0.381
				c0.355,0.103,0.713,0.204,1.068,0.308c0.3,0.461,0.662,0.5,1.082,0.161c0.963,0.134,1.926,0.265,2.889,0.398
				c0.354,0.352,0.76,0.428,1.215,0.219c0.534,0.102,1.066,0.204,1.601,0.306c4.638,2.818,9.946,2.413,15.005,2.898
				c9.634,0.926,18.803-2.265,28.013-4.247c7.207-1.552,14.472-3.179,21.655-4.88c6.676-1.58,13.722-2.297,20.612-3.348
				c3.608-0.551,4.167-1.262,3.341-4.677c-0.537-2.215,0.545-4.275,0.648-6.415c0.124-2.544,1.553-3.698,3.644-4.806
				c1.644-0.869,2.591-2.163,2.368-4.767c-0.258-3.016,2.322-5.544,4.559-7.76c2.878-2.851,6.617-4.301,10.043-6.25
				c2.795-1.589,4.943-5.919,3.945-8.996c-0.497-1.533,0.147-2.266,1.059-3.158c5.698-5.578,10.639-11.876,14.346-18.833
				c5.176-9.711,10.324-19.478,14.049-29.929c2.623-7.356,4.692-14.913,7.553-22.152c5.059-12.806,6.647-26.394,9.787-39.629
				c2.584-10.896,5.202-21.786,7.718-32.699c1.947-8.448,3.729-16.935,5.646-25.391c1.248-5.501,2.801-10.938,3.871-16.472
				c1.43-7.395,3.447-14.651,4.888-22.051c1.212-6.221,2.314-12.521,4.263-18.605c0.8-2.495,1.421-5.073,1.815-7.662
				c0.394-2.575,1.898-3.418,4.148-3.069c3.466,0.538,6.89,0.899,10.41,0.401c2.279-0.323,3.278,1.08,3.707,3.304
				c1.596,8.275,1.626,16.689,2.251,25.038c1.178,15.7,2.746,31.368,3.883,47.063c1.232,17.021,3.16,33.976,4.337,51.002
				c0.71,10.26,1.137,20.517,1.67,30.778c0.236,4.551,1.827,9.017,2.324,13.572c0.675,6.206,2.106,12.264,3.534,18.278
				c2.162,9.099,3.55,18.445,7.657,27.029c1.039,2.172,1.039,4.837,2.051,7.029c2.824,6.11,4.396,12.797,8.638,18.273
				c3.123,4.029,2.504,8.72,1.34,13.224c-0.467,1.807-0.102,2.418,1.288,3.625c4.485,3.891,9.386,7.532,11.673,13.365
				c0.358,0.912,0.936,1.606,1.523,2.345c3.126,3.923,5.27,8.348,6.587,13.18c0.284,1.039,0.153,1.996-0.323,3.005
				c-1.272,2.695-0.804,4.458,2.084,5.619c3.39,1.363,7.214,1.741,10.465,3.334c6.37,3.123,13.685,3.356,19.863,6.901
				c0.243,0.141,0.605,0.175,0.751,0.375c3.643,5.038,10.284,4.914,14.677,8.418c6.7,5.346,14.588,4.365,22.08,4.699
				c12.9,0.577,25.829,0,38.712-1.09c2.728-0.23,5.44-0.714,8.026-1.628c2.62-0.925,2.782-2.024,1.84-4.525
				c-1.73-4.584-5.5-5.99-9.703-7.237c-7.119-2.11-14.221-4.332-21.189-6.889c-4.236-1.556-8.824-2.143-12.764-4.482
				c-7.199-4.277-15.903-4.953-22.935-9.72c-2.115-1.433-5.085-1.181-7.354-2.641c-0.704-0.451-1.877-0.689-1.505-1.685
				c0.449-1.193,1.593-0.689,2.417-0.282c3.971,1.966,8.026,3.615,12.539,3.766c0.749,0.154,1.499,0.307,2.25,0.46
				c1.864,2.418,6.632,3.99,9.468,3.124c0.371,0.078,0.743,0.155,1.115,0.231c0.376,1.252,1.445,1.69,2.52,2.058
				c8.988,3.067,17.983,6.118,26.98,9.16c0.807,0.272,1.646,0.46,2.465-0.011c0.765,0.347,1.529,0.694,2.294,1.043
				c0.007,0.921,0.669,1.288,1.381,1.584c2.956,1.229,5.659,2.923,8.376,4.586c0.674,0.411,1.342,0.68,2.116,0.305
				c0.092,0.082,0.184,0.166,0.27,0.256c0.509,3.061,2.945,4.368,5.265,5.778c0.153,0.348,0.307,0.694,0.459,1.043
				c-0.255,1.773,0.636,3.213,1.376,4.696c-0.079,0.768-0.159,1.535-0.238,2.303c-0.581,0.266-0.825,0.683-0.596,1.315
				c-0.076,0.137-0.154,0.271-0.233,0.405c-3.021,1.468-5.258,3.885-7.54,6.245c-2.145,1.439-4.467,2.508-6.93,3.272
				c-0.439-0.34-0.804-0.307-1.067,0.219c-0.341,0.096-0.682,0.191-1.021,0.287c-2.448-0.108-4.441,1.172-6.538,2.137
				c-0.332,0.074-0.664,0.147-0.997,0.222c-0.46-0.344-0.82-0.288-1.057,0.266c-0.346,0.082-0.692,0.163-1.039,0.245
				c-2.771-0.041-5.55-0.137-8.026,1.45c-0.344,0.066-0.688,0.133-1.031,0.199c-0.695-0.333-1.307-0.259-1.806,0.369
				c-0.718,0.081-1.438,0.162-2.158,0.242c-2.004-0.253-3.978-0.299-5.768,0.872c-0.35,0.057-0.697,0.115-1.047,0.173
				c-0.87-0.41-1.674-0.377-2.359,0.376c-0.722,0.07-1.442,0.137-2.162,0.205c-0.689-0.319-1.304-0.274-1.804,0.359
				c-0.721,0.072-1.442,0.145-2.163,0.217c-1.393-0.305-2.785-0.631-4.061,0.362c-2.043,0.089-4.09,0.178-6.135,0.267
				c-1.206-0.411-2.396-0.641-3.499,0.271c-0.91,0.075-1.823,0.148-2.735,0.223c-0.851-0.313-1.656-0.325-2.362,0.346
				c-1.109,0.054-2.22,0.107-3.329,0.16c-2.026-0.422-4.048-0.775-5.931,0.5c-1.466,0.068-2.933,0.138-4.399,0.208
				c-1.532-0.601-3.036-0.806-4.449,0.308c-0.367,0.016-0.735,0.03-1.103,0.045c-0.829-0.127-1.66-0.361-2.489-0.361
				c-15.448,0.007-30.896,0.028-46.345,0.093c-1.495,0.008-2.993,0.301-4.484,0.499c-1.003,0.133-1.655,0.686-1.214,1.732
				c1.062,2.526-0.366,3.685-2.37,4.553c-2.464,1.066-3.593,2.878-3.342,5.587c0.125,1.352-0.308,2.57-1.116,3.7
				c-1.858,2.602-3.655,5.243-5.46,7.881c-0.701,1.025-1.277,2.104-0.884,3.42c-0.082,0.332-0.165,0.664-0.247,0.996
				c-0.868,0.526-1.237,1.293-1.111,2.298c-0.149,0.48-0.299,0.961-0.447,1.442c-1.027,0.82-1.357,1.887-1.109,3.156
				c-0.057,0.187-0.114,0.371-0.172,0.557c-1.563,0.357-1.402,1.837-1.85,2.895c-3.483,8.232-6.108,16.805-10.062,24.856
				c-2.151,4.376-4.405,8.733-5.731,13.472c-0.078,0.138-0.139,0.283-0.184,0.438c-3.951,4.511-5.018,10.572-8.279,15.46
				c-0.172,0.257-0.021,0.729-0.021,1.1c-0.368,2.187-2.352,3.5-2.991,5.54c-1.144,0.082-1.474,1.021-1.938,1.827
				c-2.907,5.047-6.074,9.886-9.82,14.394c-2.766,3.331-6.026,6.166-8.731,9.524c-1.041,0.754-2.147,1.435-3.107,2.28
				c-1.275,1.124-1.745,2.271,0.433,2.959c2.097,2.466,5.409,2.854,7.947,4.688c3.603,2.601,7.228,5.104,10.251,8.392
				c2.049,2.226,4.114,4.413,7.351,4.942c1.04,0.171,2.064,0.864,2.246,1.951c0.642,3.844,3.81,5.146,6.627,6.786"/>
		</g>
	</g>
</g>
<g id="Layer_5" display="none">
</g>
<g id="Layer_4" display="none">
	<g display="inline">
		<g>
			<path fill-rule="evenodd" clip-rule="evenodd" fill="none" d="M278.677,91.589c-2.468,2.713-3.229,6.155-4.031,9.56
				c-6.653,28.204-13.273,56.416-19.937,84.617c-2.756,11.656-5.256,23.387-8.466,34.918c-6.025,21.634-16.112,41.518-27.332,60.854
				c-1.352,2.332-3.204,4.419-5.541,5.663c-10.601,5.64-21.973,9.304-33.407,12.84c-7.183,2.224-14.612,0.761-21.806,1.959
				c-14.78,2.461-29.52,5.168-44.252,7.897c-5.75,1.064-11.306,2.762-16.398,5.821c-6.74,4.05-7.501,10.784-1.546,15.959
				c4.195,3.646,9.126,6.131,14.309,8.035c16.306,5.997,33.074,10.395,50.178,13.257c15.542,2.602,29.972,7.679,42.54,17.25
				c6.013,4.58,10.306,10.274,11.866,18.298c3.657,18.804,8.364,37.408,15.671,55.187c4.864,11.836,9.475,24.032,21.763,30.683"/>
			<path fill-rule="evenodd" clip-rule="evenodd" fill="none" d="M256.287,474.409c9.664-5.34,16.237-13.651,21.669-22.941
				c10.187-17.427,18.742-35.64,25.95-54.504c3.681-9.638,10.483-16.436,20.101-20.364c14.635-5.977,30.157-6.36,45.593-7.366
				c16.27-1.06,32.596-1.74,48.499-5.818c5.164-1.324,10.324-2.85,14.634-6.17c5.241-4.037,5.551-8.896,1.026-13.63
				c-3.53-3.69-7.892-6.19-12.603-7.901c-20.023-7.281-40.104-14.41-60.174-21.569c-1.25-0.443-2.564-0.713-3.865-0.987
				c-13.806-2.925-25.434-8.766-34.679-20.3c-9.14-11.403-13.193-24.449-16.716-37.958c-7.566-29.034-7.975-58.928-10.289-88.586
				c-1.671-21.398-3.158-42.811-4.913-64.202c-0.307-3.715-0.437-7.77-3.846-10.472"/>
			<path fill-rule="evenodd" clip-rule="evenodd" fill="#6CB0CF" d="M288.009,89.326c3.222,3.486,3.539,6.757,3.846,10.472
				c1.755,21.391,3.242,42.804,4.913,64.202c2.314,29.659,2.723,59.553,10.289,88.586c3.522,13.51,7.576,26.555,16.716,37.959
				c9.245,11.533,20.873,17.375,34.679,20.299c1.301,0.275,2.615,0.545,3.865,0.988c20.07,7.158,40.15,14.287,60.174,21.568
				c4.711,1.711,9.072,4.211,12.603,7.902c4.524,4.734,4.215,9.592-1.026,13.629c-4.31,3.32-9.47,4.846-14.634,6.17
				c-15.903,4.078-32.229,4.76-48.499,5.818c-15.436,1.006-30.958,1.391-45.593,7.367c-9.617,3.928-16.42,10.727-20.101,20.363
				c-7.208,18.865-15.764,37.078-25.95,54.504c-5.432,9.291-12.005,17.602-21.669,22.941c-1.333-0.01-2.667-0.016-4-0.023
				c-12.289-6.65-16.899-18.846-21.763-30.682c-7.307-17.779-12.014-36.383-15.671-55.188c-1.561-8.023-5.853-13.717-11.866-18.297
				c-12.568-9.572-26.997-14.648-42.54-17.25c-17.104-2.863-33.873-7.26-50.178-13.258c-5.183-1.904-10.114-4.389-14.309-8.035
				c-5.955-5.174-5.194-11.908,1.546-15.959c5.092-3.059,10.649-4.756,16.398-5.82c14.733-2.73,29.473-5.438,44.252-7.898
				c7.194-1.197,14.623,0.266,21.806-1.959c11.434-3.535,22.806-7.199,33.407-12.84c2.337-1.244,4.189-3.33,5.541-5.662
				c11.22-19.336,21.307-39.22,27.332-60.854c3.21-11.532,5.71-23.263,8.466-34.918c6.663-28.201,13.283-56.413,19.937-84.617
				c0.803-3.404,1.563-6.847,4.031-9.56C285.335,84.249,284.667,85.854,288.009,89.326z M133.372,315.346
				c2.446,1.363,4.355,1.219,6.095,0.967c9.016-1.303,17.997-2.822,27.145-3.006c2.222-0.045,4.298-1.352,5.537-3.057
				c2.272-3.131,5.271-4.904,8.754-6.219c1.48-0.559,3.726-1.285,2.683-3.336c-0.868-1.705-2.587-0.137-3.958,0.24
				c-10.537,2.904-20.538,7.434-31.221,9.979C143.565,312.068,138.203,311.895,133.372,315.346z M404.724,340.918
				c-0.672-2.57-2.678-3.816-4.916-4.455c-3.882-1.107-7.265-3.164-10.81-4.965c-3.391-1.723-6.299-4.4-10.1-5.275
				c-1.458-0.338-3.428-2.145-4.362-0.055c-0.892,1.984,1.204,3.238,2.824,4.049c7.837,3.936,16.054,7.113,23.391,12.047
				C402.207,343.244,403.964,343.15,404.724,340.918z"/>
			<path opacity="0.3" fill-rule="evenodd" clip-rule="evenodd" fill="#11A3DC" d="M132.667,315.416
				c4.831-3.451,11.491-3.93,16.333-5.083c10.683-2.546,20.426-7.389,30.963-10.293c1.37-0.376,3.336-0.985,4.204,0.72
				c1.043,2.051-1.203,2.777-2.683,3.336c-3.483,1.314-6.482,3.088-8.754,6.218c-1.239,1.705-3.315,3.013-5.537,3.058
				c-9.148,0.184-18.129,1.702-27.145,3.006C138.308,316.628,135.113,316.778,132.667,315.416z"/>
			<path opacity="0.4" fill-rule="evenodd" clip-rule="evenodd" fill="#11A3DC" d="M404.806,340.731
				c-0.76,2.232-2.767,2.919-4.223,1.939c-7.337-4.934-15.329-7.986-23.166-11.921c-1.62-0.812-4.559-2.765-3.667-4.75
				c0.935-2.089,3.772-0.302,5.23,0.035c3.801,0.876,6.709,3.553,10.1,5.276c3.545,1.801,6.928,3.856,10.81,4.965
				C402.128,336.915,404.134,338.16,404.806,340.731z"/>
		</g>
	</g>
</g>
<g id="Layer_6">
	<g>
		<g>
			<path fill-rule="evenodd" clip-rule="evenodd" fill="#FAFAFA" d="M423.444,441.441c-115.664,0-231.293,0-346.888,0
				c0-127.661,0-255.289,0-382.883c115.663,0,231.292,0,346.888,0C423.444,186.22,423.444,313.849,423.444,441.441z
				 M158.324,271.664c-0.291-0.616-0.582-1.233-0.873-1.85c-3.097,0.144-6.248-0.03-9.282,0.483
				c-15.43,2.609-30.915,5.004-46.202,8.301c-6.881,1.483-13.484,4.59-19.957,7.528c-4.924,2.235-5.648,7.248-1.613,10.997
				c2.998,2.785,6.503,5.55,10.29,6.865c12.871,4.474,25.884,8.595,38.998,12.298c15.813,4.467,32.365,5.683,47.723,12.532
				c12.926,5.764,20.991,14.296,24.417,28.045c3.941,15.824,8.17,31.626,13.365,47.071c3.908,11.618,8.504,23.264,17.609,32.167
				c5.754,5.628,9.543,5.4,15.49-0.032c7.871-7.19,14.006-15.684,18.521-25.236c7.467-15.801,14.74-31.701,21.719-47.724
				c4.793-11.007,11.947-19.392,23.791-22.474c7.861-2.046,15.963-3.456,24.047-4.312c17.879-1.893,35.887-2.727,53.701-5.068
				c8.451-1.11,16.826-4.084,24.783-7.323c7.998-3.255,8.484-9.727,1.525-14.789c-3.727-2.711-7.932-5.043-12.262-6.601
				c-19.119-6.879-38.359-13.421-57.568-20.051c-0.787-0.271-1.693-0.194-2.543-0.279c20.104,12.258,41.787,20.729,63.943,28.166
				c-0.191,0.865-0.383,1.731-0.572,2.597c-9.701,0.306-19.402,0.764-29.105,0.807c-2.305,0.011-4.639-1.305-6.922-2.118
				c-2.752-0.981-5.471-2.053-8.186-3.133c-1.359-0.541-3.066-0.844-3.945-1.844c-4.342-4.934-10.141-6.415-16.172-8.027
				c-4.01-1.072-8.271-3.044-11.234-5.86c-11.213-10.66-20.834-22.681-28.15-36.415c-2.807-5.273-6.717-10.272-8.162-15.901
				c-4.586-17.867-9.693-35.794-11.934-54.025c-3.531-28.739-4.814-57.751-7.211-86.634c-0.992-11.942-2.438-23.847-3.609-35.775
				c-0.299-3.04-1.879-4.278-4.844-4.554c-4.383-0.405-6.73,1.135-7.752,5.662c-6.785,30.063-14.098,60.013-20.584,90.14
				c-6.625,30.768-14.934,60.748-31.41,88.05c-5.125,8.489-11.285,14.565-20.514,17.849c-2.926,1.041-6.271,2.169-8.263,4.329
				c-5.046,5.475-9.435,11.557-14.657,18.11c-0.587,0.188-2.477,0.82-4.382,1.4c-1.878,0.573-3.741,1.295-5.667,1.601
				c-4.758,0.755-9.548,1.312-14.326,1.944c-3.032,0.402-6.107,0.604-9.088,1.245c-5.552,1.193-11.034,3.648-16.573,3.735
				c-7.243,0.113-14.514-1.563-21.772-2.469c0.022-0.648,0.044-1.296,0.066-1.944c10.886-2.407,21.784-4.761,32.655-7.235
				c9.206-2.098,18.415-4.201,27.539-6.617C155.078,274.792,156.617,272.911,158.324,271.664z"/>
			<path fill-rule="evenodd" clip-rule="evenodd" fill="#6CB0CF" d="M158.324,271.664c-1.708,1.247-3.247,3.128-5.151,3.632
				c-9.125,2.416-18.333,4.52-27.539,6.617c-10.871,2.475-21.769,4.828-32.655,7.235c-0.022,0.648-0.044,1.296-0.066,1.944
				c7.259,0.906,14.53,2.582,21.772,2.469c5.54-0.087,11.021-2.542,16.573-3.735c2.981-0.642,6.056-0.843,9.088-1.245
				c4.777-0.633,9.567-1.189,14.326-1.944c1.925-0.306,3.788-1.027,5.667-1.601c1.905-0.58,3.795-1.212,4.382-1.4
				c5.222-6.554,9.611-12.636,14.657-18.11c1.991-2.16,5.337-3.288,8.263-4.329c9.229-3.283,15.389-9.359,20.514-17.849
				c16.477-27.302,24.785-57.282,31.41-88.05c6.486-30.127,13.799-60.076,20.584-90.14c1.021-4.527,3.369-6.067,7.752-5.662
				c2.965,0.275,4.545,1.514,4.844,4.554c1.172,11.929,2.617,23.833,3.609,35.775c2.396,28.883,3.68,57.895,7.211,86.634
				c2.24,18.231,7.348,36.158,11.934,54.025c1.445,5.629,5.355,10.628,8.162,15.901c7.316,13.734,16.938,25.755,28.15,36.415
				c2.963,2.816,7.225,4.788,11.234,5.86c6.031,1.612,11.83,3.094,16.172,8.027c0.879,1,2.586,1.303,3.945,1.844
				c2.715,1.08,5.434,2.151,8.186,3.133c2.283,0.813,4.617,2.129,6.922,2.118c9.703-0.043,19.404-0.501,29.105-0.807
				c0.189-0.865,0.381-1.731,0.572-2.597c-22.156-7.438-43.84-15.908-63.943-28.166c0.85,0.085,1.756,0.008,2.543,0.279
				c19.209,6.63,38.449,13.172,57.568,20.051c4.33,1.558,8.535,3.89,12.262,6.601c6.959,5.063,6.473,11.534-1.525,14.789
				c-7.957,3.239-16.332,6.213-24.783,7.323c-17.814,2.342-35.822,3.176-53.701,5.068c-8.084,0.855-16.186,2.266-24.047,4.312
				c-11.844,3.082-18.998,11.467-23.791,22.474c-6.979,16.022-14.252,31.923-21.719,47.724c-4.516,9.553-10.65,18.046-18.521,25.236
				c-5.947,5.433-9.736,5.66-15.49,0.032c-9.105-8.903-13.701-20.549-17.609-32.167c-5.195-15.445-9.424-31.247-13.365-47.071
				c-3.426-13.749-11.491-22.281-24.417-28.045c-15.358-6.85-31.911-8.065-47.723-12.532c-13.114-3.703-26.127-7.824-38.998-12.298
				c-3.787-1.315-7.292-4.08-10.29-6.865c-4.035-3.749-3.311-8.762,1.613-10.997c6.472-2.938,13.075-6.045,19.957-7.528
				c15.287-3.297,30.772-5.691,46.202-8.301c3.035-0.514,6.186-0.34,9.282-0.483C157.743,270.431,158.033,271.048,158.324,271.664z"
				/>
		</g>
	</g>
</g>
</svg>
